<?xml version="1.0" encoding="utf-8"?>
<!-- Generator: Adobe Illustrator 19.0.1, SVG Export Plug-In . SVG Version: 6.00 Build 0)  -->
<svg version="1.1" id="Layer_1" xmlns="http://www.w3.org/2000/svg" xmlns:xlink="http://www.w3.org/1999/xlink" x="0px" y="0px"
	 viewBox="-155 247 300 300" style="enable-background:new -155 247 300 300;" xml:space="preserve">
<style type="text/css">
	.st0{fill:#FF1919;}
	.st1{fill:#FFFFFF;}
</style>
<g>
	<path d="M-3.7,261.8c-74.6,0-135,60.4-135,135c0,74.6,60.4,135,135,135c74.6,0,135-60.4,135-135C131.3,322.2,70.9,261.8-3.7,261.8z
		 M-3.7,512.7c-64,0-115.9-51.9-115.9-115.9c0-64,51.9-115.9,115.9-115.9c64,0,115.9,51.9,115.9,115.9
		C112.2,460.8,60.4,512.7-3.7,512.7z"/>
	<circle class="st0" cx="-3.7" cy="396.8" r="104.4"/>
	<polygon class="st1" points="58.9,427.6 27.1,459.3 -3.7,428.5 -34.5,459.3 -66.2,427.6 -35.4,396.8 -66.2,366 -34.5,334.3 
		-3.7,365.1 27.1,334.3 58.9,366 28.1,396.8 	"/>
</g>
</svg>
