<?xml version="1.0" encoding="utf-8"?>
<!-- Generator: Adobe Illustrator 19.0.1, SVG Export Plug-In . SVG Version: 6.00 Build 0)  -->
<svg version="1.1" id="Layer_1" xmlns="http://www.w3.org/2000/svg" xmlns:xlink="http://www.w3.org/1999/xlink" x="0px" y="0px"
	 viewBox="0 0 612 409" style="enable-background:new 0 0 612 409;" xml:space="preserve">
<style type="text/css">
	.st0{fill:#FFFFFF;}
</style>
<g>
	<path d="M140.5,183.8c0.2-3-0.1-6.1,0.7-9c1.1-4,2.7-7.9,4.4-11.7c1.9-4.4,4.8-7.9,8.8-10.6c0.6-0.4,1-0.9,1.5-1.3
		c-0.2-0.3-0.4-0.6-0.6-1c-2.3,1.3-4.5,2.6-6.4,3.6c0.9-3,4.7-5.4,9.5-4.5c8.2,1.6,15.6,4.7,21.1,11.5c4.8,6,7.2,12.9,9.4,19.9
		c0.4,1.4,1.1,2.8,1.6,4.2c8.3-5.3,14.5-1.5,19.8,3c3.5,2.9,6.4,6.6,10.2,9.1c9.7,6.5,14.7,16.2,18.7,26.6c0.6,1.6,0.8,3.4,1.1,5.1
		c0.6,3.4,1.2,6.7,1.7,10.1c0.4,2.3,0.6,4.6,0.9,7.2c7.1-0.5,10.1,4.1,12.2,10c0.6,1.7,1.5,3.3,2.4,4.9c2.9,5.4,1.3,10.9,0.3,16.4
		c-0.1,0.7-0.3,1.6,0,2.3c3.2,7.3,0.4,11.7-7.6,11.5c-0.3,0-0.6,0.1-1.3,0.3c0.4,1.8,0.7,3.5,1.1,5.2c1.7,6.1,2.3,12.3,2.6,18.7
		c0.4,9.6,1.9,19.2,3.3,28.7c1.1,7.5,3,14.9,3.8,22.5c0.6,5.2,3.6,7.5,7.8,8.8c8,2.6,15.5,6.1,22.9,10.1c10.6,5.7,21.2,11.6,32,16.7
		c9.7,4.6,20.1,7.3,30.9,8.4c0.5,0,0.9,0.4,1.3,0.6c-6.3,0-12.7,0-19,0c-0.7-0.3-1.4-0.7-2.2-0.9c-1.6-0.4-3.5-0.4-4.9-1.2
		c-3-1.6-5.8-3.7-8.8-5.4c-7.7-4.3-15.5-8.5-23.2-12.7c-4.2-2.3-8.4-4.6-12.6-6.9c4.4,6.1,5.6,12.6,4.1,19.7
		c-0.5,2.4-0.9,4.9-1.3,7.3c-6.1,0-12.2,0-18.4,0c1.3-2.5,2.2-5.2,3.8-7.4c2.8-4,2.2-8.3,2.2-12.6c-1.2-0.2-2.1-0.4-2.9-0.5
		c-1.1,2.1-2.2,4.1-3.3,6c1.4,0.2,2.6,0.4,3.7,0.5c-0.6,0.9-1.1,1.8-1.7,2.8c-0.1,0.1-0.1,0.2-0.1,0.3c-2,4-8.1,6.5-11.7,5.4
		c-1.5,2-2.8,3.8-4.1,5.6c-1.2,0-2.4,0-3.7,0c-1-2-2-3.9-2.9-5.8c-1,0.8-1.9,1.6-2.7,2.4c-0.4-0.5-0.9-0.9-1.2-1.4
		c-1,1.7-2,3.2-2.9,4.7c-2.2,0-4.5,0-6.7,0c0-3.7,0.1-7.4,0-11.2c0-2.4-0.2-4.9-0.4-7.7c-0.3-0.2-1.3-0.6-1.6-1.3
		c-0.9-2-2.7-1.4-3.5-0.7c-3.8,3.5-8.8,6-9.5,12c-0.2,1.3-1.3,2.5-2,3.8c-0.9,1.7-1.8,3.4-2.6,5c-3.5,0-6.9,0-10.4,0
		c-0.3-0.7-0.5-1.4-0.8-2.1c5.7-1.6,9.4-6.2,8.5-11c-3.2,4-6.6,3.4-9.5,0.5c0.3-0.2,1.1-0.6,2-1.2c-0.6-0.4-0.8-0.6-0.9-0.6
		c-5.1,1-10.2,1.2-15.2,0c-0.8-0.2-1.4-0.8-2.1-1.4c-0.1,0,0.3-0.9,0.5-1c2.8-0.1,5.8-0.5,8.5,0.1c3.8,0.8,5.2,0.4,7-4.1
		c-2.5-0.3-4.9-0.6-7.3-0.9c-0.1-0.2-0.2-0.5-0.3-0.7c1.2-0.4,2.4-0.9,3.6-1.3c1.2-0.4,2.5-0.8,3.6-1.4c2.3-1.1,2.9-4.8,6.4-4.2
		c-0.1-0.5,0-1-0.2-1.4c-0.1-0.4-0.7-0.8-0.7-0.9c1.6-4.1-1.7-5-4.3-5.8c-3.7-1.2-7.6-1.8-11.3-3c-4.5-1.4-9-3-13.4-4.7
		c-0.8-0.3-1.4-1.4-2.1-2.2c-1.7-1.9-3.1-4-5-5.6c-1.4-1.2-3.6-1.3-4.8-2.5c-4.8-4.5-9.4-9.2-13.9-14.1c-1.2-1.3-2.9-3-1.7-5.1
		c1.4,0.1,2.6-0.1,3.5,0.3c1.1,0.5,2.5,1.5,2.7,2.5c0.6,3,1,5.9,4.2,7.3c0.8,0.3,1.3,1.2,2,1.8c2.3,2.3,3.9,5.3,7.5,5.8
		c2.1,0.3,4.2,0.7,6.1,1.6c5.7,2.9,11.8,2,17.8,2.5c0.8,0.1,1.6-0.3,2.4-0.5c1.6-0.4,2.8-1,2.7-3c0-1.2,0.3-2.3,1.9-2.9
		c2.8-1.2,6.6-1.2,7.9-5.1c0.2-0.5,1.4-0.8,2.1-0.9c2.7-0.4,5.2-0.3,8-1.5c3.1-1.2,4.9-3.9,7.9-4.9c0.5-0.2,0.8-1.6,0.7-2.3
		c0-0.5-0.9-1.4-1.4-1.4c-4.3-0.2-8.6-0.6-12.8-0.2c-5.3,0.6-10.6,1.7-15.9,2.9c-3.5,0.8-7,1.4-9.5,4.8c-1.6,2.2-4.6,3-7.5,1.8
		c-0.7-0.3-1.2-1-1.9-1.5c0.5-0.6,0.9-1.2,1.4-1.6c7.8-5.2,9.7-7.1,12.7-13.7c-1.5,0.3-2.9,0.6-4.7,1c0.7-0.9,1.1-1.4,1.5-1.9
		c-4.7-1.6-7.8-0.2-8.6,3.6c0.7,0.1,1.4,0.3,2.1,0.4c0,0.3,0.1,0.6,0.1,0.8c-2.3,0.6-4.8,1.8-7,1.6c-4.6-0.6-5.5-4.7-6.3-8.4
		c-1.5-7.1-0.9-14.2,0.6-21.2c0.6-2.8,2.1-5.5,3.2-8.2c0.3,0.1,0.6,0.2,0.9,0.3c-0.4,1.1-0.7,2.2-1.2,3.6c4.4-0.9,6.9-3.2,7.5-6.4
		c5.1-0.5,9.8-0.9,14.4-1.4c2.3-0.3,4.6-1,6.9-1.3c5.9-0.8,11.2,0.8,16.3,4.2c0-3,0-6.1,0-9.2c0.3,0,0.7-0.1,1-0.1
		c0.5,1,1,2,1.6,3.3c1.5-10.2-1.5-17.1-8.7-20.5c-0.5,0.7-1,1.5-1.4,2.2c-2.4-1.5-2.8-3.1-1.4-4.7c1.6-1.8,3.2-0.4,4.5,0.6
		c1.8,1.3,3.6,2.5,5.2,4c3,2.8,6.5,5.1,7.6,9.5c0.6,2.5,2,4.9,3.4,7.1c3.9,5.7,6.5,11.7,5.2,18.8c-0.5,2.9-1,5.9-1.6,9.1
		c3.7-1.1,3.3-4.5,4.2-7.6c3.5,6.7-1.9,12.4-0.8,18.5c6.4-7.7,6.4-17.1,6.8-26.2c0.2-4.6-0.8-9.5-5.3-13.5c0,3.1,0,5.6,0,8.1
		c-1.4-1.4-2.6-2.9-2.8-4.5c-0.6-4.5-1-9-1.3-13.5c-0.3-4.4-3.2-7.4-7.4-7.5c-0.2-1.7-0.5-3.4-0.7-5.6c6.5,0.9,8.8-5.6,14.4-8.5
		c-2-3.1-4-6.1-6.3-9.7c-0.9,2.5-1.2,4.1-1.9,5.4c-1.3,2.2-2.9,4.1-4.2,6.3c-2.6,4.4-5.5,8-11.5,5.9c-1.7-0.6-3.6-0.3-5.5-0.3
		c-2,0-4.1,0.1-5.2,2.3c-0.2,0.4-0.8,0.5-1.2,0.6c-0.7-0.7-1.2-1.3-1.7-1.8c-0.6,1.2-1.1,2.2-1.8,3.6c0.1,1.2,0.5,3.2,0.4,5.1
		c-0.1,2.9-4.5,6.3-7.2,5.6c-0.4-0.1-0.9-1.6-0.8-1.7c2.2-1.8,4.5-3.4,6.7-5c-0.2-1.5-0.4-3.2-0.8-5.5c-2.9,2.3-5.7,4.2-7.9,6.5
		c-2.3,2.3-4.9,3.4-6.9,2.3c-0.5-7.8,5.6-11,10.2-15.4c-1.3,0.1-2.2,0.7-3,1.3c-0.9,0.6-1.6,1.6-2.6,2c-2.4,0.9-4.9,1.7-7.4,2.3
		c-0.9,0.2-1.9,0.1-2.9,0.1l0.1,0.1c0.4-0.9,0.8-1.7,1.3-2.8c-1.1,0.2-2.1,0.4-3.1,0.4c-1,0-2-0.2-3-0.5c-3-1-5-0.3-5.6,2.9
		c-0.5,2.7-0.4,5.6-0.5,8.4c-4.1,2.1,0,4.3,0,6.1c-1.5,0.9-3,1.9-3.6,3.2c-4.2,9.4-4.3,19.5-4.6,29.5c-0.1,1.6-0.1,3.2-0.2,4.8
		c-0.3,0-0.7,0-1,0c-0.3-0.6-0.8-1.1-0.9-1.8c-0.9-4.5-2-8.9-2.5-13.4c-0.8-7.5-1.7-15.1,4.2-21.4c0.8-0.9,1-2.4,1.6-4.1
		c-3.7,1.6-6.8,2.6-9.7,4.3c-2,1.2-4.4,2.9-5.1,4.9c-1.8,4.9-2.7,10.2-4.1,15.3c-0.6,2.3-1.5,4.5-2.1,6.4c-1.1-0.1-2-0.1-2.8-0.2
		c0.1,0.8,0.2,1.6,0.4,2.4c0.3,0.9,0.7,1.7,1.1,2.5c-1.9-1.2-3.7-2.8-5.7-3.4c-2.5-0.7-5.2-0.4-7.8-0.9c-2.5-0.4-4.5-1.6-5.5-4.2
		c-0.4-0.9-1.6-1.5-2.4-2.3c-0.2,0.3-0.5,0.5-0.7,0.8c0.2,0.5,0.4,1.1,0.7,1.6c1.8,3.3,3.8,6.5,5.4,9.8c2.5,5.2,4.1,10.9,7.4,15.5
		c2.3,3.3,5.3,5.9,4.7,10.4c0.9-0.1,1.6-0.2,2.9-0.4c-0.8,0.9-1.2,1.4-1.6,1.9c0.9,0.3,1.7,0.6,2.5,0.9c-0.1,0.6-0.2,1.3-0.5,2.8
		c1.5-1.2,2.3-1.9,3.7-3.1c-0.8,2.2-1.2,3.5-1.8,5.3c1.2-0.9,1.7-1.5,2.3-1.5c2.3-0.4,4.2,0.3,6.1,2c2.8,2.6,6.1,4.6,9.2,6.8
		c2.7,1.9,5.5,3.6,8.2,5.4c1.6,1,3.5,0.9,5,2.6c2.3,2.5,5.6,4,8.4,6c1.7,1.2,3.4,2.6,5.1,4c-0.2,0.5-0.5,0.9-0.7,1.4
		c-1.5-0.5-3-1-4.5-1.5c-2.3-0.6-4.4-3.4-6.9-0.7c-0.3-0.2-0.6-0.2-0.7-0.4c-4.2-7-11.1-10.4-18.1-13.5c-4.9-2.2-10-4.1-15.1-6.2
		c1.4,6.5,6.3,11.7,9.3,17.3c0.6,0,1.6-0.1,1.6,0c0.3,1.4,0.4,2.9,0.6,4.3c-0.3,0.1-0.5,0.3-0.8,0.4c-3-3.2-6.1-6.3-9.5-9.9
		c0.3,6.6,0.6,12.6,0.8,18.7c0,0-0.7,0-1.5,0c1.5,4.7-0.5,9.8,2.4,14.1c0.1,0.2-0.7,1.2-1.2,1.4c-1.4,0.5-4.1-1.3-4.3-2.9
		c-0.5-3.4-0.8-6.9-1.4-10.3c-0.3-2-1.2-3.8-1.8-5.7c0.6-2.1,1.3-4.1,1.8-6.2c0.4-1.7,0.2-3.5,0.6-5.1c1.8-8-0.8-15.8-1.4-23.6
		c-0.2-2.7-2.4-5.3-3.5-8c-2.6-5.9-5.1-11.7-7.7-17.8c-3.6,3.6-7.9,3.1-12,1.4c-5.3-2.3-7.6-7.1-9.1-12.3c-0.2-0.8-0.3-1.9-0.8-2.5
		c-3.8-4.5-4.9-11.7-1.8-16.6c1.5-2.4,4.2-4,6.3-6c-1.6-4-3.7-8.6-5.2-13.3c-0.9-3-0.6-6.4-1.3-9.5c-1.5-6.5-2.5-13-2-19.6
		c0.1-1,0.1-2,0.2-3.3c1.1,0.2,1.9,0.4,3.4,0.7c-1-1.1-1.4-1.6-2.2-2.5c2.7,0,5.1,0,7.5,0c0-0.3,0-0.5,0-0.8c-2.1-0.3-4.2-0.5-6.3-1
		c-0.5-0.1-1.2-1.1-1.2-1.7c0-0.7,0.5-1.5,1.1-1.6c3-1.8,6-3.6,9-5.3c-0.2-0.4-0.3-0.8-0.5-1.3c-2.8,0.5-5.5,0.9-8.6,1.4
		c-0.6-0.4-1.8-1.2-3.2-2.1c1.2,0.2,2.4,0.5,3.6,0.5c1.2,0,2.3-0.3,3.7-0.9c-2.9-0.5-5.2-1.8-6.3-4.9c4.3,0.6,8.6,0.7,12-2.9
		c-11.3,2.1-14.6,0.9-17.9-7.2c0.8,0.6,1.8,1.1,2.4,1.9c1.5,1.9,5.4,3.4,7.5,2.4c0.6-0.3,1.1-1.5,1.2-2.4c0.4-4.8,2.5-9.8,6.4-13.5
		c-0.6,1.7-1,2.8-1.4,3.9c0.3,0.1,0.5,0.2,0.8,0.4c0.9-2.1,2-4.1,2.6-6.3c1.4-5.6,3.9-10.7,7.5-15.1c1.1-1.3,2.4-2.6,3.9-3.3
		c4.8-2.1,9.8-3.8,14.6-5.8c1.6-0.7,3.1-1.7,4.9-2.7c-2.5,12.4-5.9,24.4-11.6,35.6c0.3,0.2,0.5,0.3,0.8,0.5c0.6-0.7,1.5-1.3,1.9-2.1
		c1.9-4.1,3.6-8.3,5.5-12.5C139.3,186,140,184.8,140.5,183.8c-0.8,3.4-1.8,6.8-2.7,10.3c0.4,0.1,0.7,0.2,1.1,0.3
		c0.8-3.5,1.6-7,2.4-10.5C141.1,183.8,140.8,183.8,140.5,183.8z M161.4,155.4c-1.3,0.8-2.6,1.7-3.9,2.5c-0.1-0.2-0.3-0.4-0.4-0.6
		c1.8-1.3,3.6-2.6,5.6-4.1c-7.5,1.3-13.4,10.1-12.2,18.6c1.6-7,6-11.3,10.6-15.4C161.4,156.2,161.3,155.7,161.4,155.4
		c0.7,0.1,1.4,0.4,2,0.2c3.2-1,6.2-0.1,8.6,1.8c4,3.1,7.2,6.9,8.9,11.8c0.4,1,0.8,1.8,1.2,2.8c0.4,0.9,0.7,1.8,1.2,3.1
		c0.2-6.6-3.4-10.9-6.9-15.3C172.7,154.6,167,153.1,161.4,155.4z M207.2,313c0-1.4,0.1-2.7-0.1-4.1c-0.2-0.9-0.9-2.4-1.3-2.4
		c-1.8,0.2-3.9,0.3-5,1.4c-0.7,0.6-0.2,3.2,0.5,4.5c1.6,2.7,3.9,1.7,6,0.5c-0.6,1.8-1.6,2.4-3.6,2.3c-1.4-0.1-2.8,0.8-4.2,1.3
		c-0.7,0.4-1.4,0.9-2.1,1.1c-1.9,0.5-3.8,0.9-5.7,1.3c0.1,0.4,0.2,0.9,0.3,1.3c2.9,1.4,5.5-0.8,8.6-1.1c-0.4-1.1-0.7-1.9-1-2.7
		c1.3,0.1,3.2-0.4,3.8,0.3c1.7,1.9,2.8,0.8,4.1-0.1c1.5-1.1,3-2.2,4.5-3.4c-1.4-2.6-0.4-4.4,2.2-6.1c-1.9-0.3-3.7-0.6-6-1
		c0.2,1.8,0.4,3,0.3,4.1C208.3,311.2,207.6,312,207.2,313z M168.8,216.8c-0.8,1-1.5,2-3,3.9c3.9-0.3,7-0.4,10-0.6
		c-5,4.2-10.3,3.3-16,0.5c3.6,5.3,7.8,7.7,13.9,5.1c-4.2,3-8.3,2.3-12.2,0.1c0.3,5.6,3.8,5.8,8.1,4.8c-4.9,4.4-8-0.4-12.3-2.2
		c1.7,2.4,3,4.4,4.4,6.3l0.1-0.1c-2.2-1.7-4.4-3.4-6.6-5.1c-0.5,3.6,2.3,8.1,5.7,8.7c4.3,0.7,8.2,2.1,11,6.2
		c-3.5-1.1-6.9-2.1-10.4-3.2c-0.1,0.3-0.2,0.6-0.3,1c2.6,0.9,5.1,2.2,7.7,2.7c4.4,0.8,6.5-0.8,6.3-6.4c-1.5-0.8-3.5,2.5-5.1-0.7
		c4.7,0.5,6.8-3.3,9.2-5c0.5,2.7,0.9,5.4,1.6,8.1c0.1,0.3,1.1,0.7,1.5,0.5c3.1-1.3,6.7-2,9.1-4.2c4.2-3.8,7.5-8.4,10.9-12.3
		c1.5,0.3,3.1,0.1,4.1,0.8c3.1,2.1,6.3,3.3,10,3.6c2.2,0.2,3-0.9,3.9-2.3c0.3-0.4,0.8-0.7,0.8-0.7c0.7-2,1.3-3.7,2-5.5
		c1.7,3.9,3.2,7.4,4.7,10.9c-3.1,1.9-3,2.5-0.2,4.4c0.9,0.6,2.2,1.3,2.4,2.2c0.7,3,2.5,3.7,5.8,3.3c-0.4-1.5-0.4-3.3-1.2-4.4
		c-1.8-2.3-3.5-4.4-4.2-7.5c-0.8-3.3-3.2-6.2-5.1-9.1c-0.4-0.6-1.6-1-2.4-1c-3.6,0-7.1,0.2-10.8,0.4c0.9-1.4,1.8-2.8,2.9-4.4
		c-1.7-0.9-3.4-2.6-5-2.5c-7.5,0.6-14.9,1.7-22.4,2.6c-0.4-0.5-0.8-1.5-1.1-1.5c-1.4,0.1-2.8,0.5-4.1,0.8c0.1,0.4,0.2,0.9,0.3,1.3
		c1.7-0.3,3.4-0.5,5.1-0.8c-2.7,2.2-5.5,2.1-8.8,0c-0.9-0.6-2.1-0.6-3.2-0.9c-0.1,0.3-0.1,0.6-0.2,0.9c3.6,3.4,7.3,6.6,13,4.5
		c-2.9,1.3-5.7,1.5-8.6,0.4c-1.2-0.4-2.6-0.3-4-0.4c0.2-0.4,0.5-0.8,0.8-1.4C173.9,218.1,171.3,217.5,168.8,216.8
		c-0.1-0.4-0.2-0.9-0.2-1.5c1,0.2,1.8,0.4,2.6,0.6c0.2-0.3,0.3-0.7,0.5-1c-2.2-3.3-6.6-2.6-9.4-4.8c-0.2,0.2-0.3,0.5-0.5,0.7
		c1.7,1.7,3.5,3.3,5.9,5.6c-5.6-2.3-8.1-6.9-12.2-9.9c1.2,3,2.3,6.1,4.3,8.5c1.2,1.5,3.7,2,5.7,2.6
		C166.4,217.8,167.7,217.1,168.8,216.8z M145.2,225.5c1.6,4.7,3.1,9.4,5,14c1.9,4.3,7.1,6.2,12.4,4.6c-3.5-2.5-6.6-4.8-10.2-7.5
		c0.3,1.5,0.4,2.1,0.5,2.7c-2-2.9-3.2-6.1-4.6-9.2c-0.9-1.8-2-3.5-3-5.3c-0.1-0.8,0-1.6-0.2-2.4c-0.7-3.6-1.5-7.3-2.2-10.9
		c-0.3-1.8-0.2-1.9-1.9-2.2c1.3,7,2.5,13.8,3.8,20.6c0.2,0,0.5-0.1,0.7-0.1C145.4,228.3,145.3,226.9,145.2,225.5z M169,196.7
		c-0.3,0.3-0.7,0.6-1,0.9c2.2,3.3,4.3,6.7,6.6,10c1.5,2.2,3.7,3.2,6.4,2.7c2.3-0.5,4.6-1.1,7.2-1.8c-2.2,3.4-5.9,2.9-9,3.8
		c0.1,0.3,0.1,0.7,0.2,1c6.6-0.9,13.2-1.8,20-2.7c-0.4-0.4-0.7-0.8-1-1.1c2.9-1.9,5.9-4,5.5-7.7c-0.4-3.4-2-6.8-3.1-10.1
		c1.9,0.5,4.5,1.1,7,1.8c0.1-0.2,0.2-0.4,0.2-0.7c-4.1-1.7-8.3-3.5-12.4-5.2c0.1-0.2,0.2-0.5,0.3-0.7c1.9-0.6,3.8-1.1,6.2-1.8
		c-5.9-2.5-11.3-0.1-12.6,5.4c-0.8-1.5-1.5-2.8-2.2-4c-0.2,0.1-0.5,0.1-0.7,0.2c0.3,1.2,0.6,2.5,0.9,3.7c-0.1,0.1-0.3,0.1-0.4,0.2
		c-0.6-0.7-1.2-1.5-1.8-2.2c-0.6,0.4-1.2,0.7-1.9,1.2c0.2,0.8,0.6,1.8,0.9,2.8c-0.2-0.2-0.5-0.3-0.7-0.5c-0.6,0.6-1.3,1.1-1.7,1.8
		c-0.8,1.3-1.3,3-2.4,4c-0.9,0.9-2.5,1.1-4.3,1.9C173.5,198.8,171.3,197.7,169,196.7z M119.4,247c0.2,0.2,0.3,0.5,0.5,0.7
		c1.2-0.5,2.4-1,3.4-1.5c-0.9,2.3-1.8,4.5-2.7,6.8c1.7-0.5,3.1-0.9,4.2-1.2c1.4,3.3,4.3,5.9,2.6,9.2c1,0.8,1.8,1.4,2,1.6
		c-1.3,2.9-2.3,5.3-3.6,8.2c2-0.9,3.2-1.5,4.4-1.9c1.5-0.5,2.3-1.1,2.1-3c-0.2-2.1-0.1-4.5,0.8-6.3c1.7-3.4,4.1-6.4,6.4-10
		c-4.8-9.7-5.5-20.8-5.2-33c-3.4,6.3-6.4,11.7-9.5,17.4c0.8-0.1,1.1-0.1,2.4-0.3c-2.9,3.3-5.2,6-7.6,8.7c0.1,0.1,0.2,0.2,0.3,0.3
		c1.4-1,2.8-2,4.1-3c0.2,0.2,0.3,0.5,0.5,0.7c-1,0.9-2.1,1.8-3.2,2.7c0.7,0.1,1.2,0.2,2,0.3C121.9,244.8,120.7,245.9,119.4,247z
		 M122.5,315.1c-0.3-0.7-0.6-1.4-1-2.2c-3.2-7.7-9-14.5-8.1-23.6c0.2-2.1-0.2-3.8-2.5-4.3c-1.9-0.5-3.9-1-5.8-0.9
		c-2.4,0.2-3.5,2-3.5,4.5c3.9-1.1,6.1,0.3,7.1,4.1c-1.9,0.4-3.7,0.7-6.1,1.2c-0.3-0.3-1-1.2-1.7-2.1c-0.3,0.1-0.7,0.1-1,0.2
		c0.2,2.5-0.1,5.2,0.8,7.5c0.9,2.2,3,3.8,4.2,5.2c-0.4,1-1.4,2.2-1.1,3.1c0.7,2.1,1.8,4.1,3.1,5.8
		C111.6,319.3,118.1,320.8,122.5,315.1z M139.3,288.4c1-0.7,2.2-1.2,2.9-2.2c2.1-3,1.5-5.7-1.4-8c-1.9-1.6-3.7-3.4-5.6-5
		c-0.6-0.5-1.7-0.9-2.2-0.6c-6.4,3.4-13.4,6-17.9,12.2c-0.5,0.7-0.7,1.9-0.5,2.7c0.6,2.5,1.3,5,2.4,7.3c0.5,1,1.9,1.7,3.1,2.1
		c0.5,0.2,1.9-0.5,2-1c0.8-3.2,3.4-2.4,5.5-2.8c2.1-0.4,5.3-0.7,6-2C134.8,288.3,135.7,286.5,139.3,288.4z M138.3,274.9
		c1.9-0.9,3.3-1.6,4.7-2.4c1.5-0.8,2.9-1.6,4.4-2.4c-3.5-6.1-3.5-6.1-2.9-13.2c0.1-0.9-0.7-2-1.4-2.6c-0.4-0.3-1.8,0.1-2.3,0.6
		c-1.6,1.8-3.3,3.6-4.3,5.7c-1.2,2.6-1.8,5.1-0.9,8.4C136.3,271.3,135.9,273.7,138.3,274.9z M147.4,240.5c-1.7-3-3.3-5.7-4.9-8.5
		c-1,1.1-1.7,3.3-3.4,0.2c0.3,2.2,0.1,3.6-3.3,2.4c1.5,4.7,2.5,8.7,4,12.4c0.5,1.1,2.3,1.9,3.7,2.4c0.5,0.2,1.5-1.2,2.4-2
		c2.1,0.5,4.7,1.4,6.6-1.7c-2.4-1.3-4.6-2.6-7.1-4C146.3,241.1,146.9,240.8,147.4,240.5z M219.3,251.1
		C219.4,251.1,219.4,251.1,219.3,251.1c0.5-0.2,1.1-0.5,1.2-0.9c0.3-2,0.8-4,0.6-6c-0.2-3.3-0.9-6.5-1.4-10.1
		c-2.2-0.2-4.5-0.5-7.6-0.8c7.5,4.4,9.6,8.8,7.5,14.1c-0.6-1.9-1.2-4-1.9-6.1c-0.4,0-0.8-0.1-1.1-0.1c-2.4,4-4.9,8-7.2,12.1
		c-0.4,0.8-0.3,2.7,0.4,3.2c0.7,0.6,2.5,0.6,3.3,0C215.4,254.9,217.3,252.9,219.3,251.1z M164.8,259.6c0,2.4,0,4.8,0,7.2
		c3.5-4.6,2.9-9.4-1.3-12.9c-2.1,1.8-4.5,3.4-6.3,5.5c-1.8,2-3,4.4-4.9,7.3C158.1,266.7,160.2,261.8,164.8,259.6z M115,241.1
		c4-2.1,6.4-5,8.5-8.3c0.3-0.4,0.5-1.1,0.3-1.4c-1.5-2.2,0.2-3.5,1.2-5.1c2.7-4.3,5.4-8.5,7.9-12.9c1.3-2.4,2.2-5,3.3-7.6
		c-0.2-0.1-0.5-0.2-0.7-0.3C128.8,217.2,122,228.9,115,241.1z M198.6,254.8c-2-1.3-3.7-2.3-5.9-0.5c-1.3,1-3.1,1.6-4.7,2
		c-3.4,0.8-7,2.9-10.2-0.6c-0.2-0.3-1.3-0.1-1.7,0.2c-1.3,1.2-2.5,2.6-4.1,4.3c1.1,0.1,1.4,0.2,1.7,0.1c3.6-1.6,7.3-2.1,10.9-0.6
		c2.3,0.9,3.9,0.2,5.7-0.8C192.9,257.5,195.6,256.2,198.6,254.8z M256.7,264.1c-0.3,0-0.5,0-0.8,0c-0.6,1-1,2.3-1.8,3.1
		c-0.8,0.8-2.3,1-3,1.9c-0.8,0.9-1,2.3-1.5,3.4c0.9,0.1,1.8,0.2,2.6,0.4c1.4,0.3,2.9,0.7,4.5,1.1
		C256.7,270.9,256.7,267.5,256.7,264.1z M196.6,307.4c-1.2,1.8-5,0.8-3.9,3.8c0.7,2,2.6,3.5,4,5.2c0.9-0.9,2-1.6,2.6-2.7
		C200.8,310.8,198.4,309.4,196.6,307.4z M189.7,251c-0.7-0.3-1-0.4-1.4-0.6c-2.1-0.9-11.6,2.2-13,4.3c2.7,0.4,5.5,0.9,7.4,1.2
		C185.2,254.2,187.1,252.8,189.7,251z M194.1,299.7c-1.2,1.1-3.3,2.2-3.3,3.3c0,1.6,0.2,4.4,3.2,4.2c1.9-0.1,3.7-0.6,3.7-3
		C197.7,302.3,197.5,300.1,194.1,299.7z M204.5,298.8c-2.3,0.3-4.3,0.6-6.3,0.8c1.2,6.2,1.7,6.9,5.2,5.8
		C206.7,304.3,204.8,301.5,204.5,298.8z M188.4,309.9c1.8,1,2.5-1.6,2.2-2.3c-0.5-1.7-1.6-3.8-3.1-4.6c-1.5-0.7-2.7,0.9-2.7,2.7
		C185,307.7,185,309.7,188.4,309.9z M149.6,216.1c-1.4,3.1,0,8.8,2.7,11.7c-0.1-1.3-0.1-2.4-0.2-3.5c0.7,1,1.2,1.8,1.8,2.7
		c0.2-0.1,0.4-0.3,0.7-0.4C153,223.3,152.9,219.2,149.6,216.1z M179.4,317.1c-0.1,0-0.2,0.1-0.3,0.1c0.6,2.5,1,5.1,1.8,7.5
		c0.1,0.4,1.6,0.8,2.3,0.6c2.1-0.8,4.1-1.8,6-2.8c0.4-0.2,0.4-1.2,0.6-2c-1.4,0.3-2.6,0.3-3.5,0.7c-2.7,1.2-4.6,0.6-5.9-2
		C180,318.5,179.7,317.8,179.4,317.1z M205,298.9c1.8,1.5-0.5,5.8,4.1,5.2c2-0.3,3.1-1.3,2.6-3.5C211.2,298.5,208.7,297.8,205,298.9
		z M194,316.3c-1.4-2.1-2.5-3.8-3.8-5.4c-0.1-0.1-1.8,1.1-2.7,1.6c1.2,1.8,2.4,3.6,3.8,5.3C191.3,318,192.7,317,194,316.3z
		 M184.8,311.7c-0.4-2.1-0.5-4.2-1.1-6.1c-0.3-0.8-1.4-1.4-2.1-2.1c-0.6,0.7-1.7,1.4-1.8,2.3C179.4,308.8,180.8,310.4,184.8,311.7z
		 M141,169.1c-0.4-0.2-0.8-0.4-1.2-0.6c-2.9,5.3-5.7,10.7-9,16.7C136.5,180.5,138.5,174.6,141,169.1z M173.3,252.7
		c5.2-1.8,10.1-3.4,15-5.1c-5.4-0.6-10.3,0.8-14.8,3.6C173.1,251.4,173.3,252.6,173.3,252.7z M110.8,237.1c-1.1-0.1-2.3-0.3-3.4-0.3
		c-1-0.1-2.1-0.2-3.1-0.1c-0.8,0.1-1.6,0.4-2.4,0.6c0.5,0.8,0.7,2,1.5,2.4C106.2,241.2,108.5,239.8,110.8,237.1z M101.9,260.3
		c0.3,0.3,0.6,0.6,0.9,0.8c3.9-3.4,7.8-6.8,11.7-10.2C109.2,252.9,105.1,256.1,101.9,260.3z M257.4,285.4c0.9-2.4,0-5-2.3-6.5
		c-1.7-1.1-3-0.6-4,0.9C253.3,281.7,255.3,283.6,257.4,285.4z M217.6,322.3c1.2,0.6,2.2,1.1,3.2,1.7c1,0.6,2,1.1,2.9,1.7
		c1-0.4,1.9-0.8,2.9-1.3C225.2,321.4,223.2,321,217.6,322.3z M182.9,314.3c1.1,1.7,1.9,3.3,3.1,4.7c0.3,0.3,2.3-0.1,2.4-0.4
		C189.1,316,185.9,313.3,182.9,314.3z M248.2,248.9c-0.3-0.6-0.6-1.2-0.9-1.8c-1.4,0.4-3.2,0.5-4.3,1.3c-1.9,1.5-0.8,3.2-1,3.1
		C244,250.6,246.1,249.8,248.2,248.9z M162,187.7c-2.3,4.8-2.6,9.7-0.9,14.3C161.4,197.4,161.7,192.5,162,187.7z M126.2,194.5
		c-1,1.2-1.7,2.1-2.4,3c0.1,0.1,0.3,0.2,0.4,0.3c0.4-0.2,0.8-0.5,1.2-0.7c0.1,0.1,0.3,0.2,0.4,0.3c-0.7,1.1-1.4,2.1-2.1,3.2
		c2.7-1.5,5.6-2.8,6.1-6.6c-0.9,0.8-1.6,1.4-2.3,2C127,195.5,126.7,195.1,126.2,194.5z M170.4,206.5c-2.2-3.6-4.4-7.2-6.9-11.5
		C164.3,200.3,166.5,204,170.4,206.5z M248.3,287.1c0.9,3.9,3.5,4.4,7,1.4C252.9,288,250.8,287.6,248.3,287.1z M185.1,320.5
		c-1.4-2.8-2.4-4.8-3.5-7.2c-1.6,2.5-0.3,4.2,0.6,5.9C182.5,319.8,183.6,319.9,185.1,320.5z M169.1,166c0.1-0.8,0.5-1.7,0.1-2.1
		c-2.2-2.8-4.2,0.7-6.4,0.7C164.8,165,166.8,165.5,169.1,166z M136.4,217.4c0.5-4.5,0.9-8.3,1.3-12.1
		C136.6,209,134.1,212.5,136.4,217.4z M214.4,209.4c-1.3-1.8,0.3-4.6-2.9-5C210.4,208.1,210.9,209.1,214.4,209.4z M97.9,212.4
		c3.1,2.3,7.5,2,8.8-0.4C103.9,212.1,100.8,212.3,97.9,212.4z M178.4,307.5c-0.3,0.1-0.7,0.3-1,0.4c0.6,1.6,1.1,3.3,1.8,4.8
		c0.1,0.2,1.3-0.2,2.3-0.3C180.2,310.4,179.3,308.9,178.4,307.5z M106.3,251.1c0.9-1.1,1.6-2,2.5-3c-1.6-0.8-2.9-1.5-4.8-2.4
		C104.9,247.6,105.5,249.1,106.3,251.1z M102.1,245.5c2-1.3,3.9-2.4,5.9-3.7C102.8,241.9,102.2,242.3,102.1,245.5z M175.8,211.5
		c-2.2-1.6-3.8-2.8-5.5-4.1c-0.2,0.3-0.4,0.6-0.6,0.9C171.3,209.5,171.3,213.1,175.8,211.5z M118.1,181.5c0.3,0.2,0.6,0.5,0.9,0.7
		c1.7-2.2,3.5-4.4,5.2-6.5c-0.3-0.3-0.6-0.5-1-0.8C121.6,177.1,119.8,179.3,118.1,181.5z M168.3,209.5c0.4-0.4,0.9-0.7,1.3-1.1
		c-1.6-1.7-3.3-3.4-4.9-5c-0.2,0.2-0.4,0.3-0.6,0.5C165.5,205.7,166.9,207.6,168.3,209.5z M165.1,169.2c-2-1.8-4.1-2.5-6.5,0
		C161.1,169.2,163.1,169.2,165.1,169.2z M131.6,171.5c1.8,0.3,3.3,0.5,4.9,0.7c0.3-0.7,0.7-1.5,1.5-3.2
		C135.4,170.1,133.6,170.8,131.6,171.5z"/>
	<path class="st0" d="M180.1,264.7c1,0,2,0.2,2.9-0.1c2.5-0.7,5-1.4,7.4-2.3c1-0.4,1.7-1.3,2.6-2c0.9-0.6,1.8-1.1,3-1.3
		c-4.6,4.4-10.7,7.6-10.2,15.4c2.1,1.1,4.7,0,6.9-2.3c2.2-2.3,5-4.2,7.9-6.5c0.3,2.3,0.5,3.9,0.8,5.5c-2.3,1.7-4.5,3.3-6.7,5
		c-0.1,0.1,0.4,1.6,0.8,1.7c2.7,0.6,7.1-2.7,7.2-5.6c0.1-1.9-0.3-3.9-0.4-5.1c0.7-1.4,1.2-2.4,1.8-3.6c0.5,0.5,1,1.1,1.7,1.8
		c0.4-0.2,1-0.3,1.2-0.6c1.1-2.3,3.1-2.3,5.2-2.3c1.8,0,3.8-0.2,5.5,0.3c6.1,2.1,8.9-1.6,11.5-5.9c1.3-2.2,2.9-4.1,4.2-6.3
		c0.8-1.3,1.1-2.9,1.9-5.4c2.3,3.6,4.3,6.6,6.3,9.7c-5.6,2.9-7.9,9.4-14.4,8.5c0.3,2.2,0.5,3.8,0.7,5.6c4.2,0.1,7.1,3.1,7.4,7.5
		c0.3,4.5,0.6,9,1.3,13.5c0.2,1.6,1.4,3.1,2.8,4.5c0-2.5,0-5,0-8.1c4.5,3.9,5.5,8.8,5.3,13.5c-0.4,9.1-0.4,18.5-6.8,26.2
		c-1.1-6,4.2-11.7,0.8-18.5c-0.8,3.2-0.5,6.5-4.2,7.6c0.6-3.2,1.1-6.2,1.6-9.1c1.3-7.1-1.3-13.1-5.2-18.8c-1.5-2.1-2.8-4.6-3.4-7.1
		c-1.1-4.4-4.6-6.7-7.6-9.5c-1.6-1.5-3.4-2.8-5.2-4c-1.4-1-3-2.3-4.5-0.6c-1.4,1.6-0.9,3.2,1.4,4.7c0.5-0.7,1-1.4,1.4-2.2
		c7.2,3.4,10.2,10.3,8.7,20.5c-0.6-1.3-1.1-2.3-1.6-3.3c-0.3,0-0.7,0.1-1,0.1c0,3.1,0,6.1,0,9.2c-5.1-3.4-10.4-5-16.3-4.2
		c-2.3,0.3-4.6,1-6.9,1.3c-4.6,0.6-9.3,0.9-14.4,1.4c-0.6,3.2-3.1,5.5-7.5,6.4c0.5-1.4,0.8-2.5,1.2-3.6c-0.3-0.1-0.6-0.2-0.9-0.3
		c-1.1,2.7-2.5,5.4-3.2,8.2c-1.5,7-2.1,14.1-0.6,21.2c0.8,3.7,1.7,7.8,6.3,8.4c2.2,0.3,4.7-1,7-1.6c0-0.3-0.1-0.6-0.1-0.8
		c-0.7-0.1-1.4-0.3-2.1-0.4c0.8-3.8,3.9-5.2,8.6-3.6c-0.4,0.5-0.8,1-1.5,1.9c1.8-0.4,3.2-0.7,4.7-1c-3.1,6.6-4.9,8.6-12.7,13.7
		c-0.6,0.4-1,1.1-1.4,1.6c0.6,0.5,1.2,1.3,1.9,1.5c2.9,1.1,5.8,0.3,7.5-1.8c2.5-3.4,6-4,9.5-4.8c5.3-1.2,10.5-2.3,15.9-2.9
		c4.2-0.4,8.6,0,12.8,0.2c0.5,0,1.3,0.9,1.4,1.4c0.1,0.8-0.2,2.2-0.7,2.3c-3,1-4.8,3.7-7.9,4.9c-2.8,1.1-5.3,1.1-8,1.5
		c-0.8,0.1-2,0.4-2.1,0.9c-1.3,3.9-5,3.8-7.9,5.1c-1.6,0.7-1.9,1.8-1.9,2.9c0.1,2.1-1.1,2.6-2.7,3c-0.8,0.2-1.6,0.5-2.4,0.5
		c-6-0.4-12.1,0.4-17.8-2.5c-1.8-0.9-4-1.3-6.1-1.6c-3.7-0.6-5.3-3.6-7.5-5.8c-0.6-0.6-1.2-1.5-2-1.8c-3.2-1.4-3.7-4.3-4.2-7.3
		c-0.2-1-1.6-1.9-2.7-2.5c-0.9-0.4-2.1-0.2-3.5-0.3c-1.2,2.1,0.5,3.8,1.7,5.1c4.5,4.8,9.1,9.5,13.9,14.1c1.3,1.2,3.5,1.4,4.8,2.5
		c1.9,1.6,3.4,3.7,5,5.6c0.7,0.8,1.2,1.8,2.1,2.2c4.4,1.7,8.9,3.3,13.4,4.7c3.7,1.1,7.7,1.7,11.3,3c2.5,0.8,5.8,1.7,4.3,5.8
		c-0.1,0.2,0.5,0.6,0.7,0.9c0.2,0.4,0.1,1,0.2,1.4c-3.4-0.6-4.1,3-6.4,4.2c-1.1,0.6-2.4,0.9-3.6,1.4c-1.2,0.4-2.4,0.9-3.6,1.3
		c0.1,0.2,0.2,0.5,0.3,0.7c2.4,0.3,4.7,0.6,7.3,0.9c-1.8,4.5-3.2,4.9-7,4.1c-2.7-0.6-5.7-0.1-8.5-0.1c-0.2,0-0.6,0.9-0.5,1
		c0.7,0.5,1.3,1.2,2.1,1.4c5.1,1.2,10.1,1,15.2,0c0.1,0,0.3,0.2,0.9,0.6c-0.9,0.6-1.7,1-2,1.2c2.9,2.9,6.3,3.5,9.5-0.5
		c0.9,4.8-2.8,9.4-8.5,11c0.3,0.7,0.6,1.4,0.8,2.1c-2.7,0-5.3,0-8,0c0.4-0.5,0.6-1.2,1.2-1.6c1.4-0.9,1.2-2-0.1-2.5
		c-1.6-0.7-3.5-0.9-5.1-1.3c-0.1-0.6-0.3-1.4-0.5-2.2c0.5,0.7,1,1.5,1.5,2.2c-1.5,0.3-3.4,0.1-4.5,1c-1.2,0.9-1.5,2.8-2.3,4.3
		c-17.6,0-35.1,0-52.7,0c1.2-2.2,1.3-4.3,0.2-6.6c-1-2.1-2.7-4-1.4-6.6c0.1-0.2-0.8-0.9-1.4-1.7c0,3.9-4.5,8.1,1.5,10.3
		c-0.5,1.6-0.9,3.1-1.3,4.7c-2.7,0-5.3,0-8,0c-0.1-0.6-0.2-1.2-0.4-1.7c-2.2-7-2.1-13.8,2.4-20c2.2-3,4.8-5.7,7.2-8.6
		c0.6-0.7,0.8-1.6,1.2-2.5c0,0,0,0,0,0c0.6,1.9,1.4,3.8,1.8,5.7c0.6,3.4,0.9,6.8,1.4,10.3c0.2,1.5,2.8,3.4,4.3,2.9
		c0.5-0.2,1.3-1.3,1.2-1.4c-2.9-4.3-0.9-9.4-2.4-14.1c0.8,0,1.5,0,1.5,0c-0.3-6.1-0.5-12.1-0.8-18.7c3.4,3.6,6.5,6.7,9.5,9.9
		c0.3-0.1,0.5-0.3,0.8-0.4c-0.2-1.4-0.3-2.9-0.6-4.3c0-0.1-1,0-1.6,0c-3-5.6-7.9-10.8-9.3-17.3c5.1,2.1,10.2,4,15.1,6.2
		c7,3.2,14,6.5,18.1,13.5c0.1,0.2,0.3,0.2,0.7,0.4c2.5-2.7,4.6,0.1,6.9,0.7c1.5,0.4,3,1,4.5,1.5c0.2-0.5,0.5-0.9,0.7-1.4
		c-1.7-1.3-3.3-2.7-5.1-4c-2.8-2-6.1-3.5-8.4-6c-1.6-1.7-3.5-1.6-5-2.6c-2.7-1.8-5.5-3.6-8.2-5.4c-3.1-2.2-6.4-4.2-9.2-6.8
		c-1.9-1.7-3.7-2.4-6.1-2c-0.6,0.1-1.1,0.7-2.3,1.5c0.6-1.8,1.1-3.1,1.8-5.3c-1.4,1.1-2.2,1.8-3.7,3.1c0.3-1.5,0.4-2.2,0.5-2.8
		c-0.8-0.3-1.6-0.6-2.5-0.9c0.4-0.5,0.8-1,1.6-1.9c-1.3,0.2-2,0.3-2.9,0.4c0.6-4.5-2.4-7-4.7-10.4c-3.3-4.6-4.9-10.3-7.4-15.5
		c-1.6-3.3-3.6-6.5-5.4-9.8c-0.3-0.5-0.5-1.1-0.7-1.6c0.2-0.3,0.5-0.5,0.7-0.8c0.8,0.7,2.1,1.3,2.4,2.3c1,2.6,3,3.8,5.5,4.2
		c2.6,0.4,5.3,0.1,7.8,0.9c2,0.6,3.8,2.2,5.7,3.4c-0.3-0.8-0.8-1.6-1.1-2.5c-0.2-0.8-0.3-1.6-0.4-2.4c0.8,0.1,1.6,0.1,2.8,0.2
		c0.6-1.9,1.5-4.1,2.1-6.4c1.4-5.1,2.3-10.3,4.1-15.3c0.7-2,3.1-3.7,5.1-4.9c2.8-1.7,6-2.7,9.7-4.3c-0.6,1.7-0.7,3.2-1.6,4.1
		c-5.9,6.3-5,13.9-4.2,21.4c0.5,4.5,1.6,9,2.5,13.4c0.1,0.6,0.6,1.2,0.9,1.8c0.3,0,0.7,0,1,0c0.1-1.6,0.1-3.2,0.2-4.8
		c0.3-10,0.4-20.1,4.6-29.5c0.6-1.4,2.1-2.3,3.6-3.2c0-1.8-4.1-4,0-6.1c0.2-2.9,0-5.7,0.5-8.4c0.6-3.2,2.5-4,5.6-2.9
		c0.9,0.3,2,0.5,3,0.5c1,0,2-0.2,3.1-0.4C180.9,263,180.5,263.9,180.1,264.7c-0.7,0-1.5-0.1-2.3-0.1c-4.9,0.2-7.4,3.4-5.3,7.4
		c0.9,1.6,3.5,2.4,5.3,3.5c0.7-1.2,1.4-2.4,2-3.6c0.3-0.7,0.5-1.4,0.8-2.3c1,0.5,1.8,0.8,2.7,1.3
		C182.1,268.5,181.1,266.6,180.1,264.7z M184.3,375.9c-3-1.1-4.7-4.7-8.4-3.1c0.8,1.4,1.6,2.6,1.9,3.1c1.9,0.8,3.2,1.4,4.8,2
		C182.8,377.7,183.4,377,184.3,375.9z M190.9,353.4c1.9-0.3,3.5-0.6,5.1-0.8c0.1-0.2,0.1-0.3,0.2-0.5c-1.8-0.4-3.6-0.9-4.5-1.1
		c-1.7,1.2-2.9,2-4,2.8c1.3,0.5,2.7,1.1,4.1,1.6c0.1-0.1,0.2-0.3,0.3-0.4C191.8,354.6,191.5,354.2,190.9,353.4z M176.8,393.9
		c0,0.5-0.1,1-0.1,1.5c1.6,0.1,3.2,0.2,4.9,0.2c0-0.5,0.1-0.9,0.1-1.4C180,394.1,178.4,394,176.8,393.9z"/>
	<path class="st0" d="M286.7,411.1c0.4-2.4,0.8-4.9,1.3-7.3c1.5-7.1,0.3-13.6-4.1-19.7c4.2,2.3,8.4,4.6,12.6,6.9
		c7.7,4.2,15.5,8.4,23.2,12.7c3,1.7,5.8,3.8,8.8,5.4c1.5,0.8,3.3,0.8,4.9,1.2c0.8,0.2,1.5,0.6,2.2,0.9
		C319.4,411.1,303.1,411.1,286.7,411.1z"/>
	<path d="M133.6,378.3c-0.4,0.8-0.7,1.8-1.2,2.5c-2.4,2.9-5,5.6-7.2,8.6c-4.4,6.2-4.6,13-2.4,20c0.2,0.6,0.3,1.2,0.4,1.7
		c-3.9,0-7.8,0-11.6,0c-1.4-6.8,0.1-13.3,3-19.6c-8.6,4.4-16.9,9-24.9,13.8c-2.5,1.5-4.6,3.9-6.8,5.8c-1.8,0-3.7,0-5.5,0
		c11.5-10.3,25.4-16.5,39.1-23.2C122.3,385,127.9,381.5,133.6,378.3z M119.3,403.8c1.3-4.7-2.6-5.3-5.5-7.4c-0.6,2.4-1,4.4-1.5,6.4
		c0.2,0.1,0.3,0.1,0.5,0.2c0.3-0.5,0.6-0.9,1-1.5c0.3,1.1,0.6,2.1,0.9,3.2C116.3,404.4,117.8,404.1,119.3,403.8z"/>
	<path class="st0" d="M82.8,411.1c2.3-2,4.3-4.3,6.8-5.8c8.1-4.8,16.4-9.4,24.9-13.8c-2.9,6.4-4.4,12.8-3,19.6
		C102,411.1,92.4,411.1,82.8,411.1z"/>
	<path class="st0" d="M214.5,411.1c0.9-1.7,1.7-3.4,2.6-5c0.7-1.3,1.9-2.5,2-3.8c0.7-6,5.7-8.6,9.5-12c0.8-0.7,2.6-1.4,3.5,0.7
		c0.3,0.7,1.3,1.1,1.6,1.3c0.1,2.8,0.3,5.3,0.4,7.7c0.1,3.7,0,7.4,0,11.2C227.5,411.1,221,411.1,214.5,411.1z"/>
	<path class="st0" d="M254.3,411.1c1.3-1.8,2.6-3.6,4.1-5.6c3.6,1.1,9.8-1.4,11.7-5.4c0-0.1,0.1-0.2,0.1-0.3
		c0.6-0.9,1.1-1.8,1.7-2.8c-1.1-0.2-2.3-0.3-3.7-0.5c1.1-1.9,2.2-3.9,3.3-6c0.7,0.1,1.6,0.3,2.9,0.5c0,4.3,0.6,8.6-2.2,12.6
		c-1.6,2.3-2.6,5-3.8,7.4C263.7,411.1,259,411.1,254.3,411.1z"/>
	<path d="M186.3,411.1c0.7-1.5,1.1-3.4,2.3-4.3c1.1-0.9,3-0.7,4.5-1c-0.5-0.7-1-1.5-1.5-2.2c0.2,0.8,0.4,1.6,0.5,2.2
		c1.6,0.4,3.5,0.6,5.1,1.3c1.2,0.5,1.5,1.6,0.1,2.5c-0.5,0.3-0.8,1-1.2,1.6C192.8,411.1,189.6,411.1,186.3,411.1z"/>
	<path d="M131.2,411.1c0.4-1.5,0.9-3,1.3-4.7c-6.1-2.2-1.5-6.4-1.5-10.3c0.6,0.7,1.5,1.4,1.4,1.7c-1.2,2.6,0.5,4.6,1.4,6.6
		c1.1,2.3,1,4.5-0.2,6.6C132.8,411.1,132,411.1,131.2,411.1z"/>
	<path class="st0" d="M240.8,411.1c0.9-1.5,1.9-3.1,2.9-4.7c0.4,0.4,0.8,0.9,1.2,1.4c0.9-0.8,1.8-1.6,2.7-2.4
		c0.9,1.9,1.9,3.8,2.9,5.8C247.3,411.1,244.1,411.1,240.8,411.1z"/>
	<path class="st0" d="M187.5,215.8c7.5-0.9,14.9-2,22.4-2.6c1.6-0.1,3.3,1.6,5,2.5c-1,1.6-2,3-2.9,4.4c3.7-0.1,7.2-0.4,10.8-0.4
		c0.8,0,2,0.3,2.4,1c1.9,3,4.3,5.9,5.1,9.1c0.7,3.1,2.4,5.2,4.2,7.5c0.8,1.1,0.8,2.8,1.2,4.4c-3.3,0.4-5.1-0.3-5.8-3.3
		c-0.2-0.9-1.5-1.6-2.4-2.2c-2.8-1.9-2.8-2.5,0.2-4.4c-1.5-3.5-3-7.1-4.7-10.9c-0.7,1.8-1.3,3.6-2,5.5c0,0-0.5,0.3-0.8,0.7
		c-0.9,1.4-1.7,2.5-3.9,2.3c-3.7-0.3-7-1.5-10-3.6c-1-0.7-2.5-0.5-4.1-0.8c-3.4,3.9-6.7,8.5-10.9,12.3c-2.4,2.1-6,2.9-9.1,4.2
		c-0.4,0.2-1.5-0.2-1.5-0.5c-0.6-2.7-1.1-5.5-1.6-8.1c-2.3,1.7-4.5,5.6-9.2,5c1.6,3.2,3.6-0.2,5.1,0.7c0.2,5.6-1.9,7.2-6.3,6.4
		c-2.7-0.5-5.2-1.8-7.7-2.7c0.1-0.3,0.2-0.6,0.3-1c3.5,1.1,6.9,2.1,10.4,3.2c-2.8-4-6.7-5.4-11-6.2c-3.4-0.6-6.2-5.1-5.7-8.7
		c2.2,1.7,4.4,3.4,6.6,5.1c3.3,2.9,9.9,3.4,12,0.4c-4.4,2-8.2,1-12-0.3c-1.3-1.9-2.7-3.9-4.4-6.3c4.3,1.8,7.3,6.6,12.3,2.2
		c-4.3,1-7.8,0.8-8.1-4.8c3.8,2.2,7.9,2.8,12.2-0.1c-6.1,2.6-10.3,0.1-13.9-5.1c5.7,2.8,11,3.7,16-0.5l-0.1,0.1c1.3,0.1,2.8,0,4,0.4
		c2.9,1,5.7,0.8,8.6-0.4c-5.6,2-9.3-1.2-13-4.5c0.1-0.3,0.1-0.6,0.2-0.9c1.1,0.3,2.3,0.4,3.2,0.9c3.3,2.1,6.1,2.2,8.8,0
		C187.6,215.7,187.5,215.8,187.5,215.8z"/>
	<path class="st0" d="M169,196.7c2.3,1,4.5,2.1,6.1,2.8c1.8-0.7,3.4-1,4.3-1.9c1.1-1,1.5-2.7,2.4-4c0.4-0.7,1.2-1.2,1.7-1.8
		c0.2,0.2,0.5,0.3,0.7,0.5c-0.3-1-0.6-2-0.9-2.8c0.7-0.5,1.3-0.8,1.9-1.2c0.6,0.7,1.2,1.4,1.8,2.2c0.1-0.1,0.3-0.1,0.4-0.2
		c-0.3-1.2-0.6-2.5-0.9-3.7c0.2-0.1,0.5-0.1,0.7-0.2c0.7,1.2,1.4,2.5,2.2,4c1.3-5.5,6.7-7.9,12.6-5.4c-2.4,0.7-4.3,1.2-6.2,1.8
		c-0.1,0.2-0.2,0.5-0.3,0.7c4.1,1.7,8.3,3.5,12.4,5.2c-0.1,0.2-0.2,0.4-0.2,0.7c-2.5-0.6-5-1.3-7-1.8c1.1,3.4,2.7,6.7,3.1,10.1
		c0.4,3.7-2.7,5.9-5.5,7.7c0.3,0.3,0.6,0.7,1,1.1c-6.8,0.9-13.4,1.8-20,2.7c-0.1-0.3-0.1-0.7-0.2-1c3.1-0.9,6.8-0.4,9-3.8
		c-2.6,0.6-4.9,1.3-7.2,1.8c-2.7,0.5-4.9-0.4-6.4-2.7c-2.2-3.3-4.4-6.7-6.6-10C168.4,197.3,168.7,197,169,196.7z"/>
	<path class="st0" d="M119.4,247c1.2-1.1,2.5-2.2,4-3.5c-0.8-0.1-1.3-0.2-2-0.3c1.1-1,2.2-1.9,3.2-2.7c-0.2-0.2-0.3-0.5-0.5-0.7
		c-1.4,1-2.8,2-4.1,3c-0.1-0.1-0.2-0.2-0.3-0.3c2.4-2.7,4.7-5.4,7.6-8.7c-1.3,0.2-1.6,0.2-2.4,0.3c3.1-5.7,6.1-11.1,9.5-17.4
		c-0.4,12.1,0.4,23.3,5.2,33c-2.3,3.5-4.7,6.6-6.4,10c-0.9,1.8-0.9,4.2-0.8,6.3c0.2,1.9-0.6,2.5-2.1,3c-1.2,0.4-2.3,1-4.4,1.9
		c1.3-2.9,2.3-5.2,3.6-8.2c-0.2-0.2-1-0.8-2-1.6c1.7-3.2-1.2-5.9-2.6-9.2c-1.2,0.3-2.6,0.8-4.2,1.2c0.9-2.4,1.8-4.5,2.7-6.8
		c-1,0.4-2.2,1-3.4,1.5C119.8,247.5,119.6,247.2,119.4,247z"/>
	<path class="st0" d="M122.5,315.1c-4.4,5.8-11,4.2-15.5-1.5c-1.4-1.7-2.4-3.7-3.1-5.8c-0.3-0.8,0.7-2.1,1.1-3.1
		c-1.2-1.4-3.3-3.1-4.2-5.2c-0.9-2.2-0.6-5-0.8-7.5c0.3-0.1,0.7-0.1,1-0.2c0.7,0.9,1.4,1.8,1.7,2.1c2.4-0.5,4.2-0.8,6.1-1.2
		c-1.1-3.8-3.2-5.2-7.1-4.1c0.1-2.5,1.1-4.3,3.5-4.5c1.9-0.2,3.9,0.4,5.8,0.9c2.3,0.5,2.7,2.2,2.5,4.3c-0.9,9.1,4.9,15.9,8.1,23.6
		C121.9,313.6,122.2,314.4,122.5,315.1z"/>
	<path class="st0" d="M139.3,288.4c-3.6-1.9-4.5,0-5.9,2.7c-0.7,1.4-3.8,1.6-6,2c-2.1,0.4-4.7-0.4-5.5,2.8c-0.1,0.5-1.5,1.2-2,1
		c-1.1-0.4-2.6-1.1-3.1-2.1c-1.1-2.3-1.7-4.8-2.4-7.3c-0.2-0.8,0-2,0.5-2.7c4.5-6.2,11.4-8.8,17.9-12.2c0.5-0.3,1.7,0.2,2.2,0.6
		c1.9,1.6,3.7,3.4,5.6,5c2.9,2.3,3.5,5,1.4,8C141.5,287.1,140.3,287.7,139.3,288.4z"/>
	<path class="st0" d="M138.3,274.9c-2.4-1.1-2-3.5-2.6-5.9c-1-3.3-0.3-5.8,0.9-8.4c1-2.1,2.7-4,4.3-5.7c0.5-0.5,1.9-0.9,2.3-0.6
		c0.7,0.6,1.5,1.7,1.4,2.6c-0.6,7.2-0.6,7.2,2.9,13.2c-1.5,0.8-2.9,1.6-4.4,2.4C141.6,273.2,140.1,273.9,138.3,274.9z"/>
	<path class="st0" d="M147.4,240.5c-0.5,0.3-1.1,0.6-1.8,1.1c2.5,1.4,4.7,2.7,7.1,4c-1.9,3.1-4.5,2.2-6.6,1.7c-1,0.8-1.9,2.2-2.4,2
		c-1.4-0.4-3.3-1.2-3.7-2.4c-1.6-3.8-2.6-7.7-4-12.4c3.4,1.3,3.6-0.2,3.3-2.4c1.7,3.1,2.4,1,3.4-0.2
		C144.1,234.8,145.7,237.5,147.4,240.5z"/>
	<path class="st0" d="M219.3,251.1c-2,1.8-4,3.9-6.2,5.5c-0.8,0.6-2.6,0.5-3.3,0c-0.6-0.5-0.8-2.4-0.4-3.2c2.2-4.1,4.8-8.1,7.2-12.1
		c0.4,0,0.8,0.1,1.1,0.1c0.6,2.1,1.3,4.3,1.9,6.1c2.1-5.4,0.1-9.7-7.5-14.1c3.1,0.3,5.4,0.6,7.6,0.8c0.5,3.6,1.2,6.8,1.4,10.1
		c0.1,2-0.3,4-0.6,6C220.5,250.6,219.8,250.8,219.3,251.1C219.4,251.1,219.4,251.1,219.3,251.1z"/>
	<path class="st0" d="M164.8,259.6c-4.6,2.3-6.7,7.2-12.5,7.1c1.9-2.8,3.1-5.3,4.9-7.3c1.9-2.1,4.2-3.7,6.3-5.5
		c4.2,3.5,4.8,8.4,1.3,12.9C164.8,264.4,164.8,262,164.8,259.6z"/>
	<path class="st0" d="M115,241.1c7.1-12.2,13.8-23.9,20.5-35.5c0.2,0.1,0.5,0.2,0.7,0.3c-1.1,2.5-1.9,5.2-3.3,7.6
		c-2.5,4.4-5.2,8.6-7.9,12.9c-1,1.6-2.7,2.9-1.2,5.1c0.2,0.3-0.1,1-0.3,1.4C121.4,236.1,118.9,239,115,241.1z"/>
	<path class="st0" d="M198.6,254.8c-3,1.5-5.7,2.8-8.4,4.1c-1.8,0.9-3.5,1.7-5.7,0.8c-3.6-1.5-7.3-1-10.9,0.6
		c-0.2,0.1-0.6,0-1.7-0.1c1.6-1.7,2.8-3.1,4.1-4.3c0.3-0.3,1.4-0.4,1.7-0.2c3.3,3.4,6.8,1.4,10.2,0.6c1.6-0.4,3.4-1,4.7-2
		C194.9,252.5,196.6,253.4,198.6,254.8z"/>
	<path class="st0" d="M145.3,224.9c1,1.8,2.2,3.5,3,5.3c1.4,3.1,2.7,6.3,4.6,9.2c-0.1-0.6-0.2-1.2-0.5-2.7c3.7,2.7,6.8,4.9,10.2,7.5
		c-5.3,1.6-10.6-0.3-12.4-4.6c-2-4.5-3.4-9.3-5-14C145.2,225.3,145.3,225.1,145.3,224.9z"/>
	<path class="st0" d="M168.8,216.8c-1.1,0.3-2.4,1-3.4,0.8c-2-0.5-4.5-1.1-5.7-2.6c-2-2.4-3.1-5.5-4.3-8.5c4,3,6.5,7.6,12.2,9.9
		c-2.4-2.3-4.1-4-5.9-5.6c0.2-0.2,0.3-0.5,0.5-0.7c2.8,2.2,7.2,1.5,9.4,4.8c-0.2,0.3-0.3,0.7-0.5,1c-0.8-0.2-1.6-0.4-2.6-0.6
		C168.6,215.9,168.7,216.4,168.8,216.8C168.7,216.9,168.8,216.8,168.8,216.8z"/>
	<path class="st0" d="M207.2,312.9c0.4-0.9,1.1-1.8,1.2-2.7c0.2-1.1-0.1-2.3-0.3-4.1c2.3,0.4,4.1,0.7,6,1c-2.6,1.7-3.6,3.5-2.2,6.1
		c-1.5,1.1-3,2.3-4.5,3.4c-1.3,1-2.4,2-4.1,0.1c-0.6-0.7-2.5-0.2-3.8-0.3l0,0c1.4-0.5,2.8-1.4,4.2-1.3
		C205.7,315.3,206.8,314.7,207.2,312.9L207.2,312.9z"/>
	<path class="st0" d="M256.7,264.1c0,3.4,0,6.8,0,9.8c-1.6-0.4-3-0.7-4.5-1.1c-0.9-0.2-1.7-0.3-2.6-0.4c0.5-1.2,0.7-2.5,1.5-3.4
		c0.7-0.9,2.2-1,3-1.9c0.8-0.8,1.2-2,1.8-3.1C256.2,264.1,256.5,264.1,256.7,264.1z"/>
	<path class="st0" d="M161.4,155.3c-0.1,0.4,0,0.9-0.3,1.1c-4.6,4.1-9,8.4-10.6,15.4c-1.2-8.5,4.7-17.3,12.2-18.6
		c-2,1.4-3.8,2.8-5.6,4.1c0.1,0.2,0.3,0.4,0.4,0.6C158.8,157,160.1,156.2,161.4,155.3C161.4,155.4,161.4,155.3,161.4,155.3z"/>
	<path class="st0" d="M196.6,307.4c1.8,2,4.2,3.4,2.7,6.3c-0.6,1.1-1.7,1.8-2.6,2.7c-1.4-1.7-3.3-3.2-4-5.2
		C191.5,308.2,195.3,309.2,196.6,307.4z"/>
	<path class="st0" d="M207.3,312.8c-2.1,1.2-4.5,2.2-6-0.5c-0.7-1.2-1.2-3.8-0.5-4.5c1.2-1.1,3.3-1.2,5-1.4c0.4,0,1.1,1.5,1.3,2.4
		c0.2,1.3,0.1,2.7,0.1,4.1C207.2,312.9,207.3,312.8,207.3,312.8z"/>
	<path class="st0" d="M189.7,251c-2.6,1.8-4.6,3.2-7,4.9c-2-0.3-4.7-0.8-7.4-1.2c1.3-2.1,10.9-5.2,13-4.3
		C188.7,250.6,189,250.7,189.7,251z"/>
	<path class="st0" d="M194.1,299.7c3.5,0.4,3.6,2.6,3.6,4.5c0,2.3-1.8,2.8-3.7,3c-3.1,0.2-3.2-2.5-3.2-4.2
		C190.8,301.8,192.9,300.8,194.1,299.7z"/>
	<path class="st0" d="M204.5,298.8c0.3,2.7,2.2,5.5-1.1,6.6c-3.5,1.2-4,0.4-5.2-5.8C200.2,299.4,202.2,299.1,204.5,298.8z"/>
	<path class="st0" d="M161.4,155.4c5.6-2.3,11.3-0.7,15.2,4.3c3.4,4.4,7,8.7,6.9,15.3c-0.5-1.3-0.8-2.2-1.2-3.1
		c-0.4-0.9-0.9-1.8-1.2-2.8c-1.8-4.8-5-8.7-8.9-11.8c-2.5-1.9-5.4-2.8-8.6-1.8C162.9,155.7,162.1,155.4,161.4,155.4
		C161.4,155.3,161.4,155.4,161.4,155.4z"/>
	<path class="st0" d="M145.3,224.9c0,0.2-0.1,0.4-0.1,0.6c0.1,1.4,0.2,2.8,0.3,4.3c-0.2,0-0.5,0.1-0.7,0.1
		c-1.2-6.8-2.5-13.6-3.8-20.6c1.7,0.4,1.6,0.4,1.9,2.2c0.7,3.7,1.5,7.3,2.2,10.9C145.3,223.2,145.2,224.1,145.3,224.9z"/>
	<path class="st0" d="M188.4,309.9c-3.4-0.2-3.4-2.3-3.5-4.2c-0.1-1.8,1.2-3.5,2.7-2.7c1.5,0.8,2.5,2.9,3.1,4.6
		C190.9,308.4,190.2,311,188.4,309.9z"/>
	<path class="st0" d="M149.6,216.1c3.3,3.1,3.4,7.2,5,10.5c-0.2,0.1-0.4,0.3-0.7,0.4c-0.6-0.8-1.2-1.7-1.8-2.7
		c0.1,1.1,0.1,2.2,0.2,3.5C149.6,224.9,148.1,219.2,149.6,216.1z"/>
	<path class="st0" d="M179.4,317.1c0.3,0.7,0.6,1.4,0.9,2.1c1.3,2.6,3.2,3.2,5.9,2c1-0.4,2.2-0.4,3.5-0.7c-0.2,0.8-0.2,1.8-0.6,2
		c-1.9,1.1-3.9,2.1-6,2.8c-0.6,0.2-2.1-0.2-2.3-0.6c-0.8-2.5-1.2-5-1.8-7.5C179.2,317.2,179.3,317.1,179.4,317.1z"/>
	<path class="st0" d="M205,298.9c3.7-1.1,6.2-0.4,6.7,1.7c0.5,2.1-0.6,3.2-2.6,3.5C204.5,304.7,206.9,300.4,205,298.9z"/>
	<path class="st0" d="M194,316.3c-1.3,0.8-2.7,1.7-2.8,1.6c-1.4-1.7-2.6-3.5-3.8-5.3c0.9-0.6,2.6-1.8,2.7-1.6
		C191.5,312.4,192.6,314.2,194,316.3z"/>
	<path class="st0" d="M184.8,311.7c-4-1.2-5.4-2.8-5-5.9c0.1-0.8,1.2-1.5,1.8-2.3c0.7,0.7,1.9,1.2,2.1,2.1
		C184.2,307.5,184.4,309.5,184.8,311.7z"/>
	<path class="st0" d="M141,169.1c-2.6,5.5-4.5,11.4-10.2,16.1c3.3-6.1,6.1-11.4,9-16.7C140.2,168.7,140.6,168.9,141,169.1z"/>
	<path class="st0" d="M173.3,252.7c0-0.2-0.2-1.3,0.2-1.5c4.5-2.8,9.4-4.2,14.8-3.6C183.3,249.3,178.4,251,173.3,252.7z"/>
	<path class="st0" d="M110.8,237.1c-2.3,2.7-4.7,4.1-7.5,2.5c-0.7-0.4-1-1.6-1.5-2.4c0.8-0.2,1.6-0.5,2.4-0.6c1-0.1,2.1,0,3.1,0.1
		C108.6,236.8,109.7,237,110.8,237.1z"/>
	<path class="st0" d="M175.8,220.1c-3,0.2-6,0.4-10,0.6c1.4-1.9,2.2-2.9,3-3.9c0,0-0.1,0.1-0.1,0.1c2.6,0.6,5.1,1.3,7.8,1.9
		C176.2,219.4,176,219.8,175.8,220.1C175.7,220.2,175.8,220.1,175.8,220.1z"/>
	<path class="st0" d="M101.9,260.3c3.2-4.3,7.3-7.5,12.6-9.3c-3.9,3.4-7.8,6.8-11.7,10.2C102.5,260.9,102.2,260.6,101.9,260.3z"/>
	<path class="st0" d="M257.4,285.4c-2-1.8-4.1-3.6-6.2-5.6c1-1.5,2.2-2,4-0.9C257.4,280.3,258.3,283,257.4,285.4z"/>
	<path class="st0" d="M217.6,322.3c5.6-1.3,7.6-0.8,9,2.1c-1,0.4-1.9,0.8-2.9,1.3c-1-0.6-1.9-1.2-2.9-1.7
		C219.8,323.4,218.8,322.9,217.6,322.3z"/>
	<path class="st0" d="M199.5,316.4c0.3,0.8,0.6,1.6,1,2.7c-3,0.3-5.6,2.4-8.6,1.1c-0.1-0.4-0.2-0.9-0.3-1.3c1.9-0.4,3.8-0.8,5.7-1.3
		C198.1,317.3,198.7,316.8,199.5,316.4C199.5,316.4,199.5,316.4,199.5,316.4z"/>
	<path class="st0" d="M182.9,314.3c3-1,6.2,1.7,5.5,4.3c-0.1,0.4-2.1,0.8-2.4,0.4C184.8,317.6,183.9,316,182.9,314.3z"/>
	<path class="st0" d="M248.2,248.9c-2.1,0.9-4.1,1.8-6.2,2.6c0.2,0.1-0.9-1.6,1-3.1c1.1-0.9,2.8-0.9,4.3-1.3
		C247.6,247.7,247.9,248.3,248.2,248.9z"/>
	<path class="st0" d="M162,187.7c-0.3,4.8-0.6,9.7-0.9,14.3C159.4,197.4,159.7,192.5,162,187.7z"/>
	<path class="st0" d="M126.2,194.5c0.5,0.6,0.9,1,1.4,1.6c0.8-0.6,1.4-1.2,2.3-2c-0.6,3.8-3.5,5-6.1,6.6c0.7-1.1,1.4-2.1,2.1-3.2
		c-0.1-0.1-0.3-0.2-0.4-0.3c-0.4,0.2-0.8,0.5-1.2,0.7c-0.1-0.1-0.3-0.2-0.4-0.3C124.5,196.6,125.2,195.7,126.2,194.5z"/>
	<path class="st0" d="M170.4,206.5c-3.9-2.6-6.1-6.2-6.9-11.5C166,199.3,168.2,202.9,170.4,206.5z"/>
	<path class="st0" d="M248.3,287.1c2.5,0.5,4.6,0.9,7,1.4C251.8,291.5,249.2,291,248.3,287.1z"/>
	<path class="st0" d="M185.1,320.5c-1.5-0.6-2.7-0.7-3-1.3c-0.9-1.7-2.2-3.4-0.6-5.9C182.7,315.7,183.7,317.7,185.1,320.5z"/>
	<path class="st0" d="M169.1,166c-2.3-0.5-4.3-0.9-6.3-1.4c2.3-0.1,4.2-3.5,6.4-0.7C169.5,164.3,169.2,165.2,169.1,166z"/>
	<path class="st0" d="M136.4,217.4c-2.3-5,0.2-8.4,1.3-12.1C137.3,209.1,136.9,212.9,136.4,217.4z"/>
	<path class="st0" d="M214.4,209.4c-3.5-0.4-4-1.4-2.9-5C214.7,204.9,213.2,207.6,214.4,209.4z"/>
	<path class="st0" d="M140.5,183.8c0.3,0,0.6,0,0.9,0.1c-0.8,3.5-1.6,7-2.4,10.5c-0.4-0.1-0.7-0.2-1.1-0.3
		C138.7,190.6,139.7,187.1,140.5,183.8C140.6,183.7,140.5,183.8,140.5,183.8z"/>
	<path class="st0" d="M97.9,212.4c2.9-0.1,6-0.3,8.8-0.4C105.4,214.4,101,214.7,97.9,212.4z"/>
	<path class="st0" d="M178.4,307.5c0.9,1.5,1.9,3,3.1,4.9c-0.9,0.1-2.2,0.5-2.3,0.3c-0.7-1.5-1.3-3.2-1.8-4.8
		C177.7,307.7,178,307.6,178.4,307.5z"/>
	<path class="st0" d="M106.3,251.1c-0.8-2-1.5-3.5-2.3-5.5c1.9,1,3.2,1.6,4.8,2.4C108,249.1,107.3,250,106.3,251.1z"/>
	<path class="st0" d="M102.1,245.5c0-3.1,0.6-3.5,5.9-3.7C106.1,243,104.2,244.2,102.1,245.5z"/>
	<path class="st0" d="M175.8,211.5c-4.5,1.6-4.5-2-6.2-3.2c0.2-0.3,0.4-0.6,0.6-0.9C172,208.7,173.6,209.9,175.8,211.5z"/>
	<path class="st0" d="M118.1,181.5c1.7-2.2,3.5-4.4,5.2-6.5c0.3,0.3,0.6,0.5,1,0.8c-1.7,2.2-3.5,4.4-5.2,6.5
		C118.7,182,118.4,181.7,118.1,181.5z"/>
	<path class="st0" d="M168.3,209.5c-1.4-1.9-2.8-3.7-4.2-5.6c0.2-0.2,0.4-0.3,0.6-0.5c1.6,1.7,3.3,3.4,4.9,5
		C169.2,208.8,168.7,209.1,168.3,209.5z"/>
	<path class="st0" d="M187.6,215.7c-1.7,0.3-3.4,0.5-5.1,0.8c-0.1-0.4-0.2-0.9-0.3-1.3c1.4-0.3,2.7-0.7,4.1-0.8
		c0.3,0,0.7,0.9,1.1,1.5C187.5,215.8,187.6,215.7,187.6,215.7z"/>
	<path class="st0" d="M165.1,169.2c-2,0-4,0-6.5,0C161,166.6,163.1,167.3,165.1,169.2z"/>
	<path class="st0" d="M131.6,171.5c2-0.8,3.8-1.5,6.4-2.5c-0.8,1.7-1.2,2.5-1.5,3.2C134.8,172,133.4,171.8,131.6,171.5z"/>
	<path d="M180.1,264.7c1,1.9,2,3.9,3.2,6.1c-0.9-0.4-1.7-0.8-2.7-1.3c-0.3,0.9-0.5,1.6-0.8,2.3c-0.6,1.2-1.3,2.4-2,3.6
		c-1.8-1.1-4.4-1.9-5.3-3.5c-2.1-3.9,0.5-7.1,5.3-7.4C178.5,264.5,179.3,264.7,180.1,264.7C180.2,264.7,180.1,264.7,180.1,264.7z"/>
	<path d="M184.3,375.9c-0.9,1-1.5,1.7-1.7,2c-1.6-0.7-2.9-1.2-4.8-2c-0.3-0.5-1-1.7-1.9-3.1C179.5,371.2,181.2,374.8,184.3,375.9z"
		/>
	<path d="M190.9,353.4c0.6,0.8,1,1.2,1.3,1.6c-0.1,0.1-0.2,0.3-0.3,0.4c-1.4-0.6-2.8-1.1-4.1-1.6c1.1-0.8,2.2-1.6,4-2.8
		c0.9,0.2,2.7,0.7,4.5,1.1c-0.1,0.2-0.1,0.3-0.2,0.5C194.4,352.9,192.8,353.1,190.9,353.4z"/>
	<path d="M176.8,393.9c1.6,0.1,3.2,0.2,4.8,0.3c0,0.5-0.1,0.9-0.1,1.4c-1.6-0.1-3.2-0.2-4.9-0.2
		C176.7,394.9,176.8,394.4,176.8,393.9z"/>
	<path class="st0" d="M119.3,403.8c-1.6,0.3-3,0.6-4.6,0.9c-0.3-1.2-0.6-2.2-0.9-3.2c-0.4,0.6-0.7,1-1,1.5c-0.2-0.1-0.3-0.1-0.5-0.2
		c0.5-2,1-4,1.5-6.4C116.7,398.5,120.6,399.1,119.3,403.8z"/>
	<path d="M161.8,234.8c3.8,1.3,7.6,2.3,12,0.3C171.7,238.1,165.2,237.6,161.8,234.8C161.8,234.7,161.8,234.8,161.8,234.8z"/>
</g>
<polygon points="281.3,297.3 310.9,280.8 310.5,310.8 550.6,310.8 550.6,70.6 310.4,70.6 310.4,226.4 310.4,246.1 "/>
<g>
	<path class="st0" d="M340,101.8h15l9.9,33l9.8-33h15.1l-19.6,59.1h-10.8L340,101.8z"/>
	<path class="st0" d="M395.8,160.9v-59.1h14.5v59.1H395.8z"/>
	<path class="st0" d="M422.3,160.9v-59.1h21.9c6.7,0,12.1,1.9,15.9,5.8c0.8,0.8,1.6,1.7,2.2,2.7s1.2,1.8,1.6,2.5s0.8,1.7,1.1,2.9
		c0.3,1.2,0.5,2.1,0.7,2.7c0.2,0.6,0.3,1.6,0.4,3.2c0.1,1.6,0.1,2.5,0.1,2.9v3.4v3.3v3v3c0,0.5,0,1.4,0,2.7c0,1.3-0.1,2.2-0.2,2.8
		c-0.1,0.6-0.3,1.4-0.5,2.5c-0.2,1.1-0.4,2-0.7,2.7c-0.3,0.7-0.7,1.5-1.1,2.4s-0.9,1.7-1.5,2.5s-1.3,1.5-2,2.3
		c-3.9,3.9-9.2,5.8-15.9,5.8H422.3z M436.8,147.9h6.4c3.2,0,5.5-1.1,7-3.3c0.6-0.9,1-2.1,1.2-3.7s0.3-4.8,0.3-9.5
		c0-4.8-0.1-7.9-0.3-9.5c-0.2-1.6-0.6-2.9-1.2-3.7c-1.5-2.2-3.8-3.3-7-3.3h-6.4V147.9z"/>
	<path class="st0" d="M476.3,160.9v-59.1h40.2v12.9h-25.7v9.9h22v12.9h-22v10.4h25.7v12.9H476.3z"/>
	<path class="st0" d="M342.9,184.5v-15h50.4v15h-16.8v53.4h-16.8v-53.4H342.9z"/>
	<path class="st0" d="M398.9,210v-6.3v-6.3c0-1.1,0.1-2.9,0.4-5.4c0.2-2.6,0.6-4.5,1-5.9c0.4-1.3,1.1-2.9,2.1-4.7
		c0.9-1.8,2.1-3.4,3.5-4.8c5.1-5.1,11.5-7.7,19.1-7.7c7.6,0,14,2.6,19.1,7.7c1.4,1.4,2.6,3,3.5,4.8c0.9,1.8,1.6,3.4,2.1,4.7
		c0.5,1.3,0.8,3.3,1,5.9c0.2,2.6,0.3,4.4,0.3,5.4v6.3v6.3c0,1.1-0.1,2.9-0.3,5.4c-0.2,2.6-0.6,4.5-1,5.9c-0.5,1.3-1.1,2.9-2.1,4.7
		s-2.1,3.4-3.5,4.8c-5.1,5.1-11.5,7.7-19.1,7.7s-14-2.6-19.1-7.7c-1.4-1.4-2.6-3-3.5-4.8s-1.6-3.3-2.1-4.7c-0.4-1.3-0.8-3.3-1-5.9
		C399,212.8,398.9,211,398.9,210z M416.3,191.9c-0.4,2.1-0.6,6.1-0.6,11.8c0,5.8,0.2,9.7,0.6,11.8c0.4,2.1,1,3.7,1.9,4.9
		c1.5,2.1,3.8,3.1,6.7,3.1c3,0,5.2-1,6.7-3.1c0.9-1.2,1.6-2.8,1.9-4.9c0.4-2.1,0.6-6,0.6-11.8c0-5.7-0.2-9.7-0.6-11.9
		c-0.4-2.2-1-3.8-1.9-4.9c-1.5-2-3.8-3-6.7-3c-3,0-5.2,1-6.7,3C417.3,188.1,416.6,189.7,416.3,191.9z"/>
	<path class="st0" d="M462.5,237.9v-68.3h14.7l21.9,34.4v-34.4h16.8v68.3h-14.7l-21.9-34.4v34.4H462.5z"/>
	<path class="st0" d="M342.4,267.7v-3.2v-3.2c0-0.5,0.1-1.5,0.2-2.8c0.1-1.3,0.3-2.3,0.5-3c0.2-0.7,0.6-1.5,1-2.4
		c0.5-0.9,1.1-1.7,1.8-2.4c2.6-2.6,5.8-3.9,9.6-3.9c3.4,0,6.3,1,8.7,2.9c2.4,1.9,3.9,4.7,4.5,8.4H360c-0.7-2.5-2.2-3.7-4.4-3.7
		c-1.5,0-2.6,0.5-3.4,1.5c-0.5,0.6-0.8,1.4-1,2.6c-0.2,1.1-0.3,3.1-0.3,6s0.1,4.9,0.3,6c0.2,1.1,0.5,2,1,2.6c0.7,1,1.9,1.5,3.4,1.5
		c2.3,0,3.7-1.2,4.4-3.7h8.7c-0.6,3.7-2.1,6.5-4.5,8.4c-2.4,1.9-5.3,2.9-8.7,2.9c-3.8,0-7-1.3-9.6-3.9c-0.7-0.7-1.3-1.5-1.8-2.4
		c-0.5-0.9-0.8-1.7-1-2.4c-0.2-0.7-0.4-1.7-0.5-3C342.4,269.2,342.4,268.3,342.4,267.7z"/>
	<path class="st0" d="M369.2,281.9l12.6-34.7h6.6l12.6,34.7h-8.9l-1.6-5.1h-10.7l-1.7,5.1H369.2z M382.2,269.6h6l-2.9-9.2
		L382.2,269.6z"/>
	<path class="st0" d="M402.9,267.7v-3.2v-3.2c0-0.5,0.1-1.5,0.2-2.8c0.1-1.3,0.3-2.3,0.5-3c0.2-0.7,0.6-1.5,1-2.4
		c0.5-0.9,1.1-1.7,1.8-2.4c2.6-2.6,5.8-3.9,9.6-3.9c3.4,0,6.3,1,8.7,2.9c2.4,1.9,3.9,4.7,4.5,8.4h-8.7c-0.7-2.5-2.2-3.7-4.4-3.7
		c-1.5,0-2.6,0.5-3.4,1.5c-0.5,0.6-0.8,1.4-1,2.6c-0.2,1.1-0.3,3.1-0.3,6s0.1,4.9,0.3,6c0.2,1.1,0.5,2,1,2.6c0.7,1,1.9,1.5,3.4,1.5
		c2.3,0,3.7-1.2,4.4-3.7h8.7c-0.6,3.7-2.1,6.5-4.5,8.4c-2.4,1.9-5.3,2.9-8.7,2.9c-3.8,0-7-1.3-9.6-3.9c-0.7-0.7-1.3-1.5-1.8-2.4
		c-0.5-0.9-0.8-1.7-1-2.4c-0.2-0.7-0.4-1.7-0.5-3S402.9,268.3,402.9,267.7z"/>
	<path class="st0" d="M433.6,281.9v-34.7h8.5v13.3h9.1v-13.3h8.5v34.7h-8.5v-13.7h-9.1v13.7H433.6z"/>
	<path class="st0" d="M466.7,281.9v-34.7h23.6v7.6h-15.1v5.8h12.9v7.6h-12.9v6.1h15.1v7.6H466.7z"/>
	<path class="st0" d="M508.5,247.2h10l-2.1,23.4h-5.8L508.5,247.2z M509.4,281.9v-7.6h8.2v7.6H509.4z"/>
</g>
</svg>
